<svg width="246" height="50" viewBox="0 0 246 50" fill="none" xmlns="http://www.w3.org/2000/svg">
<path d="M7.56 35.42C12.3 35.42 14.43 32.03 14.43 27.86V12.8H9.99V27.5C9.99 30.56 8.97 31.58 6.99 31.58C5.73 31.58 4.56 30.89 3.72 29.27L0.66 31.55C2.16 34.13 4.32 35.42 7.56 35.42ZM24.4308 35.42C26.7108 35.42 28.3008 34.31 29.7708 32.6H29.8608L30.1908 35H33.7908V18.23H29.4108V29.54C28.2708 31.04 27.3708 31.64 25.9908 31.64C24.3408 31.64 23.6208 30.74 23.6208 28.16V18.23H19.2108V28.7C19.2108 32.93 20.8008 35.42 24.4308 35.42ZM43.3223 35.42C47.6723 35.42 49.9823 33.08 49.9823 30.11C49.9823 27.02 47.5523 25.88 45.3323 25.04C43.5323 24.41 42.0023 23.93 42.0023 22.73C42.0023 21.74 42.6923 21.08 44.2223 21.08C45.4523 21.08 46.6523 21.68 47.8223 22.52L49.8323 19.88C48.4523 18.8 46.5323 17.81 44.1023 17.81C40.2623 17.81 37.8623 19.94 37.8623 22.91C37.8623 25.76 40.2323 27.02 42.3623 27.86C44.1023 28.52 45.8723 29.12 45.8723 30.35C45.8723 31.4 45.0923 32.15 43.4123 32.15C41.8523 32.15 40.4423 31.46 38.9123 30.29L36.9323 33.08C38.5823 34.46 41.0723 35.42 43.3223 35.42ZM58.6463 35.42C60.1463 35.42 61.3163 35.09 62.2163 34.79L61.4963 31.58C61.0163 31.76 60.3863 31.97 59.8163 31.97C58.3463 31.97 57.5363 31.07 57.5363 29.15V21.68H61.7063V18.23H57.5363V13.67H53.8763L53.3963 18.23L50.7863 18.41V21.68H53.1263V29.15C53.1263 32.9 54.6563 35.42 58.6463 35.42ZM72.3101 35H76.7501V12.8H72.3101V35ZM81.8524 35H86.2624V23.45C87.4024 22.19 88.5124 21.59 89.4424 21.59C91.0624 21.59 91.8124 22.46 91.8124 25.1V35H96.2224V23.45C97.4224 22.19 98.4724 21.59 99.4324 21.59C101.052 21.59 101.772 22.46 101.772 25.1V35H106.182V24.53C106.182 20.33 104.562 17.81 100.992 17.81C98.8024 17.81 97.1824 19.13 95.6224 20.72C94.8424 18.86 93.4324 17.81 91.0024 17.81C88.8424 17.81 87.2824 19.01 85.8724 20.45H85.7824L85.4224 18.23H81.8524V35ZM114.878 35.42C116.798 35.42 118.478 34.49 119.948 33.23H120.068L120.398 35H123.998V25.22C123.998 20.33 121.808 17.81 117.548 17.81C114.878 17.81 112.508 18.8 110.528 20L112.118 22.94C113.648 22.01 115.178 21.35 116.738 21.35C118.808 21.35 119.498 22.58 119.588 24.23C112.838 24.98 109.928 26.87 109.928 30.44C109.928 33.32 111.878 35.42 114.878 35.42ZM116.318 31.97C115.028 31.97 114.128 31.4 114.128 30.11C114.128 28.58 115.478 27.47 119.588 26.96V30.35C118.508 31.4 117.578 31.97 116.318 31.97ZM134.373 42.29C139.983 42.29 143.553 39.74 143.553 36.35C143.553 33.38 141.333 32.15 137.283 32.15H134.403C132.453 32.15 131.763 31.64 131.763 30.77C131.763 30.08 132.033 29.72 132.483 29.3C133.233 29.57 133.983 29.69 134.643 29.69C138.273 29.69 141.153 27.8 141.153 23.99C141.153 22.97 140.823 22.04 140.373 21.47H143.253V18.23H137.193C136.503 17.96 135.603 17.81 134.643 17.81C131.103 17.81 127.863 19.91 127.863 23.87C127.863 25.85 128.973 27.44 130.143 28.28V28.4C129.093 29.12 128.253 30.26 128.253 31.52C128.253 32.9 128.913 33.8 129.783 34.37V34.52C128.223 35.36 127.383 36.59 127.383 38C127.383 40.94 130.443 42.29 134.373 42.29ZM134.643 26.99C133.173 26.99 132.003 25.85 132.003 23.87C132.003 21.89 133.173 20.81 134.643 20.81C136.143 20.81 137.283 21.89 137.283 23.87C137.283 25.85 136.113 26.99 134.643 26.99ZM135.063 39.5C132.603 39.5 131.043 38.72 131.043 37.31C131.043 36.62 131.373 35.96 132.153 35.33C132.753 35.51 133.443 35.57 134.463 35.57H136.503C138.303 35.57 139.293 35.9 139.293 37.1C139.293 38.39 137.583 39.5 135.063 39.5ZM146.393 35H150.803V18.23H146.393V35ZM148.583 15.5C150.113 15.5 151.163 14.54 151.163 13.07C151.163 11.63 150.113 10.7 148.583 10.7C147.053 10.7 146.033 11.63 146.033 13.07C146.033 14.54 147.053 15.5 148.583 15.5ZM155.505 35H159.915V23.45C161.145 22.25 162.015 21.59 163.395 21.59C165.015 21.59 165.765 22.46 165.765 25.1V35H170.175V24.53C170.175 20.33 168.585 17.81 164.985 17.81C162.705 17.81 160.965 19.01 159.525 20.45H159.435L159.075 18.23H155.505V35ZM182.044 35.42C184.114 35.42 186.214 34.73 187.864 33.59L186.394 30.86C185.164 31.61 183.964 32.03 182.614 32.03C180.124 32.03 178.324 30.62 177.934 27.86H188.314C188.404 27.44 188.494 26.66 188.494 25.82C188.494 21.17 186.124 17.81 181.474 17.81C177.514 17.81 173.674 21.17 173.674 26.63C173.674 32.18 177.334 35.42 182.044 35.42ZM177.874 24.92C178.234 22.46 179.794 21.2 181.564 21.2C183.724 21.2 184.744 22.64 184.744 24.92H177.874Z" fill="#333333"/>
<ellipse cx="237.477" cy="26.0714" rx="8.52273" ry="8.92857" fill="#FFDE59"/>
<ellipse cx="224.409" cy="21.9048" rx="11.3636" ry="11.9048" fill="#03989E"/>
<ellipse cx="204.523" cy="24.881" rx="8.52273" ry="8.92857" fill="#FF5757"/>
</svg>
